<svg width="45" height="42" viewBox="0 0 45 42" fill="none" xmlns="http://www.w3.org/2000/svg">
<rect x="13" y="10" width="32" height="32" rx="3" fill="url(#paint0_linear)"/>
<path fill-rule="evenodd" clip-rule="evenodd" d="M2.05337 8.84204C1.79949 7.51411 2.4759 7.09682 3.56204 7.90839L9.46903 12.3221C10.5561 13.1344 11.9307 12.8101 12.5358 11.6043L16.9015 2.90546C17.5081 1.69671 18.4931 1.69965 19.0983 2.90546L23.464 11.6043C24.0706 12.813 25.4446 13.1337 26.5307 12.3221L32.4377 7.90839C33.5248 7.0961 34.2008 7.5112 33.9464 8.84204L30.8 22.8H5.2L2.05337 8.84204Z" stroke="#191919" stroke-width="2.33" stroke-linecap="round" stroke-linejoin="round"/>
<path d="M5.2002 22.8H30.8002V26.8C30.8002 28.1255 29.7257 29.2 28.4002 29.2H7.6002C6.27471 29.2 5.2002 28.1255 5.2002 26.8V22.8Z" stroke="#191919" stroke-width="2.33" stroke-linecap="round" stroke-linejoin="round"/>
<defs>
<linearGradient id="paint0_linear" x1="13" y1="10" x2="45" y2="42" gradientUnits="userSpaceOnUse">
<stop stop-color="#DAE6FF" stop-opacity="0"/>
<stop offset="1" stop-color="#DAE6FF"/>
</linearGradient>
</defs>
</svg>
