<svg width="568" height="542" viewBox="0 0 568 542" fill="none" xmlns="http://www.w3.org/2000/svg">
<path d="M5 115C5 88.4903 26.4903 67 53 67H474C484.493 67 493 75.5066 493 86V511H5V115Z" fill="url(#paint0_linear)"/>
<circle cx="364" cy="418" r="4" fill="#4169E1"/>
<g clip-path="url(#clip0)">
<rect width="306.858" height="175.348" rx="17.5348" transform="matrix(0.866025 0.5 -0.866025 0.5 203.855 223)" fill="#072132"/>
<mask id="mask0" style="mask-type:alpha" maskUnits="userSpaceOnUse" x="60" y="228" width="401" height="231">
<rect width="306.858" height="175.348" rx="17.5348" transform="matrix(0.866025 0.5 -0.866025 0.5 203.855 223)" fill="#C4C4C4"/>
</mask>
<g mask="url(#mask0)">
<path opacity="0.5" d="M351.9 452.715C272.684 498.45 50.4777 331.71 35.1162 306.107C19.7547 280.505 50.0773 239.471 127.483 252.779C204.889 266.087 165.336 299.641 203.709 328.908C242.082 358.174 390.366 430.506 351.9 452.715Z" fill="#24A3FF" fill-opacity="0.27"/>
<path opacity="0.5" d="M344.218 457.028C273.403 497.913 47.7181 333.242 30.826 308.53C13.9338 283.819 38.8843 245.892 113.397 260.857C187.911 275.823 153.535 306.387 192.552 335.271C231.569 364.155 378.605 437.174 344.218 457.028Z" fill="#46B1FF" fill-opacity="0.4"/>
<path opacity="0.5" d="M329.791 465.357C258.977 506.242 33.2918 341.571 16.3997 316.859C-0.492437 292.148 24.458 254.221 98.9712 269.187C173.484 284.152 139.109 314.716 178.126 343.6C217.143 372.484 364.179 445.503 329.791 465.357Z" fill="#55B8FF" fill-opacity="0.7"/>
</g>
<path d="M205.165 247.575C206.455 246.546 206.15 245.334 204.632 244.458C202.775 243.385 200.012 243.398 197.717 244.723C195.421 246.049 195.393 247.639 197.257 248.716C198.835 249.627 200.976 249.722 202.631 249.038L201.541 248.404C200.437 248.827 199.161 248.673 198.253 248.149C197.023 247.439 197.037 246.358 198.793 245.344C200.535 244.339 202.417 244.32 203.654 245.035C204.569 245.563 204.822 246.304 204.071 246.943L205.165 247.575ZM201.533 251.071L202.581 251.676L205.869 249.778C206.573 249.371 207.625 249.391 208.368 249.82C208.585 249.946 208.792 250.11 208.852 250.172L209.854 249.594C209.763 249.525 209.567 249.399 209.434 249.323C208.803 248.958 207.905 248.853 207.131 249.074L207.075 249.041L207.93 248.547L206.917 247.963L201.533 251.071ZM207.34 254.549C208.514 255.227 209.923 255.373 211.038 255.005L210.225 254.329C209.527 254.513 208.812 254.4 208.216 254.056C207.319 253.537 207.298 252.853 208.307 252.238L212.135 254.448L212.507 254.234C214.452 253.11 214.049 251.999 212.829 251.295C211.329 250.429 209.198 250.518 207.543 251.473C205.871 252.439 205.752 253.633 207.34 254.549ZM209.096 251.787C209.902 251.37 211.119 251.307 211.97 251.799C212.784 252.269 212.713 252.924 211.893 253.402L209.096 251.787ZM212.832 257.716C213.813 258.283 214.798 258.159 215.331 258.07L215.419 258.121L214.581 258.604L215.604 259.195L222.783 255.051L221.735 254.446L219.068 255.986L219.004 255.949C219.148 255.648 219.401 255.089 218.398 254.51C217.098 253.76 215.114 253.8 213.368 254.808C211.626 255.814 211.524 256.961 212.832 257.716ZM213.957 257.333C213.021 256.793 213.358 256.036 214.437 255.413C215.506 254.796 216.786 254.607 217.732 255.154C218.647 255.682 218.391 256.396 217.266 257.046C216.134 257.7 214.861 257.856 213.957 257.333ZM217.1 260.059L218.148 260.664L223.532 257.556L222.484 256.95L217.1 260.059ZM223.844 256.776C224.205 256.985 224.787 256.997 225.131 256.799C225.474 256.6 225.457 256.262 225.096 256.054C224.731 255.843 224.149 255.835 223.806 256.034C223.462 256.232 223.48 256.566 223.844 256.776ZM227.455 259.821L226.351 259.183L227.641 258.438L226.593 257.833L225.303 258.578L224.515 258.123L223.673 258.608L224.462 259.064L221.283 260.899C220.301 261.462 220.575 262.166 221.419 262.634C221.756 262.824 222.043 262.917 222.212 262.961L222.888 262.352C222.804 262.32 222.643 262.263 222.475 262.166C222.135 261.97 221.942 261.729 222.548 261.379L225.51 259.669L226.614 260.306L227.455 259.821Z" fill="white"/>
<path d="M411.384 372.721C410.066 371.96 409.524 371.438 408.871 370.534L408.647 370.189L405.47 371.484C405.942 372.138 407.103 373.136 408.576 374.012C412.088 376.04 416.013 376.424 418.548 374.993C419.953 374.213 420.095 373.086 419.045 371.485C418.444 370.493 418.097 369.859 418.665 369.531C419.167 369.241 420.32 369.289 421.61 370.034C422.737 370.664 423.278 371.249 423.651 371.746L423.823 372.005L426.908 370.762L426.81 370.725C426.392 370.198 425.618 369.447 424.327 368.701C421.024 366.794 417.051 366.396 414.681 367.744C412.931 368.73 413.637 370.262 414.325 371.329C415.034 372.424 415.096 372.891 414.559 373.197C413.74 373.66 412.343 373.274 411.384 372.721ZM435.674 375.508L433.093 374.018C432.289 373.554 431.473 373.332 430.333 373.583L414.287 377.115L417.799 379.142L420.315 378.501L424.596 380.976C424.277 381.281 423.199 382.26 423.199 382.26L426.294 384.047L435.674 375.508ZM423.756 377.624L428.466 376.443C428.414 376.453 429.44 376.199 430.062 376.034L429.249 376.768L426.533 379.228L423.756 377.624Z" fill="white"/>
<path d="M399.624 368.538L402.969 370.469L417.149 364.696L413.805 362.766L413.809 362.764L399.624 368.538Z" fill="white"/>
<path d="M397.313 362.876L398.645 361.706L398.639 361.709L403.017 357.826C403.585 357.266 403.223 356.795 402.521 356.358L397.134 353.248L396.836 353.37C397.765 354.234 398.447 355.102 398.92 355.958C398.987 356.122 398.942 356.233 398.827 356.369L391.499 363.938L395.033 365.978L412.367 362.052L408.824 360.007L397.313 362.876Z" fill="white"/>
<path d="M143.832 275.776L147.257 277.754L145.925 278.523L147.166 279.239L148.498 278.47L149.416 279L150.485 278.383L149.567 277.853L154.345 275.094L152.725 274.159L144.867 275.179L143.832 275.776ZM148.34 277.144L146.234 275.928L146.29 275.896L151.589 275.204L151.646 275.236L148.34 277.144ZM151.602 281.913C153.119 282.79 155.209 282.806 156.635 281.982C158.016 281.185 158.051 280.056 156.747 279.303C156.165 278.967 155.419 278.803 154.837 278.831L154.795 278.807L156.905 277.827L159.993 279.61L161.08 278.983L156.916 276.579L152.839 278.499L153.821 279.289C154.329 279.274 154.963 279.434 155.391 279.685C156.176 280.143 156.162 280.806 155.345 281.274C154.546 281.739 153.421 281.749 152.653 281.306C152.005 280.932 151.893 280.393 152.436 280.027L151.174 279.299C150.017 280.007 150.2 281.104 151.602 281.913ZM157.929 285.566C159.464 286.453 161.462 286.59 162.671 285.888C163.572 285.372 163.656 284.676 162.794 284.012L162.85 283.98C163.796 284.332 164.897 284.299 165.7 283.832C166.797 283.202 166.758 282.148 165.325 281.32C163.929 280.515 162.019 280.371 160.789 281.049L162.04 281.772C162.664 281.436 163.6 281.543 164.262 281.925C164.932 282.312 164.971 282.804 164.364 283.15C163.74 283.514 162.804 283.455 162.061 283.026L161.427 282.66L160.424 283.239L161.059 283.605C161.967 284.129 162.051 284.704 161.399 285.076C160.768 285.445 159.783 285.378 159.015 284.935C158.293 284.518 158.111 283.98 158.665 283.623L157.347 282.862C156.169 283.583 156.414 284.692 157.929 285.566ZM171.649 284.972C170.103 284.067 168 284.087 166.598 284.897C165.248 285.68 165.234 286.801 166.493 287.528C167.267 287.975 168.315 288.147 169.279 287.991L169.328 288.019C167.79 288.904 166.317 289.11 165.325 288.537C164.705 288.179 164.645 287.732 165.087 287.327L163.808 286.589C162.767 287.36 162.84 288.402 164.2 289.187C165.921 290.181 168.456 289.984 170.923 288.556C173.535 287.044 173.019 285.771 171.649 284.972ZM170.601 285.581C171.368 286.024 171.295 286.718 170.562 287.141C169.823 287.572 168.592 287.598 167.835 287.161C167.071 286.72 167.124 286.054 167.888 285.609C168.659 285.164 169.84 285.142 170.601 285.581Z" fill="white"/>
<path d="M176.174 296.1C177.692 296.977 179.781 296.993 181.208 296.169C182.589 295.372 182.624 294.242 181.32 293.49C180.738 293.154 179.991 292.99 179.41 293.018L179.367 292.994L181.478 292.014L184.566 293.797L185.652 293.17L181.488 290.766L177.412 292.686L178.393 293.475C178.901 293.461 179.536 293.621 179.963 293.872C180.749 294.329 180.734 294.993 179.918 295.461C179.119 295.926 177.993 295.936 177.226 295.493C176.577 295.119 176.465 294.58 177.008 294.214L175.747 293.486C174.59 294.194 174.772 295.291 176.174 296.1ZM190.121 295.75L188.884 295.036L185.954 294.667L184.762 295.356L187.514 295.706L187.556 295.73L181.642 299.144L182.943 299.895L190.121 295.75ZM194.534 298.185C192.989 297.28 190.886 297.3 189.483 298.11C188.134 298.893 188.12 300.014 189.378 300.741C190.153 301.188 191.201 301.36 192.165 301.204L192.214 301.232C190.675 302.117 189.203 302.323 188.211 301.75C187.591 301.392 187.531 300.945 187.973 300.54L186.693 299.802C185.652 300.573 185.726 301.615 187.086 302.4C188.807 303.394 191.341 303.197 193.809 301.769C196.42 300.257 195.905 298.984 194.534 298.185ZM193.486 298.794C194.254 299.237 194.18 299.931 193.448 300.354C192.708 300.785 191.478 300.811 190.721 300.374C189.957 299.933 190.009 299.267 190.773 298.822C191.544 298.377 192.726 298.355 193.486 298.794ZM193.697 306.217C195.235 307.117 197.342 307.103 198.758 306.282C200.118 305.5 200.132 304.375 198.874 303.649C198.103 303.204 197.048 303.027 196.087 303.185L196.038 303.157C197.552 302.287 199.025 302.076 200.02 302.651C200.637 303.007 200.697 303.454 200.279 303.849L201.559 304.588C202.565 303.829 202.502 302.785 201.145 302.001C199.421 301.006 196.893 301.206 194.44 302.623C191.804 304.14 192.326 305.417 193.697 306.217ZM194.741 305.606C193.974 305.162 194.047 304.472 194.794 304.037C195.554 303.606 196.767 303.578 197.528 304.017C198.288 304.456 198.243 305.126 197.468 305.569C196.687 306.025 195.502 306.045 194.741 305.606Z" fill="white"/>
<path d="M205.645 313.115C207.197 314.012 209.164 314.159 210.335 313.487C211.228 312.967 211.316 312.152 210.622 311.589L210.671 311.561C211.558 311.887 212.715 311.802 213.496 311.354C214.597 310.715 214.401 309.654 213.02 308.857C211.628 308.054 209.795 307.938 208.691 308.58C207.909 309.027 207.755 309.691 208.333 310.211L208.284 310.239C207.296 309.831 205.89 309.885 204.996 310.405C203.825 311.077 204.078 312.21 205.645 313.115ZM206.647 312.536C205.834 312.067 205.757 311.504 206.426 311.126C207.106 310.725 208.158 310.77 208.933 311.217C209.697 311.658 209.767 312.265 209.09 312.664C208.421 313.042 207.45 313 206.647 312.536ZM209.917 310.648C209.251 310.264 209.206 309.739 209.837 309.383C210.447 309.023 211.323 309.051 212.003 309.444C212.673 309.831 212.718 310.334 212.108 310.695C211.474 311.053 210.573 311.027 209.917 310.648ZM212.079 316.875C213.807 317.876 216.208 317.684 218.564 316.324C220.905 314.972 221.217 313.59 219.493 312.594C217.768 311.599 215.381 311.779 213.033 313.131C210.681 314.489 210.348 315.875 212.079 316.875ZM213.176 316.241C212.283 315.725 212.619 314.883 214.347 313.89C216.061 312.904 217.519 312.706 218.41 313.22C219.303 313.736 218.96 314.578 217.253 315.567C215.528 316.563 214.074 316.759 213.176 316.241ZM216.146 319.065L221.067 321.906L222.154 321.279L219.027 319.474L219.077 319.445L221.572 319.433C224.306 319.465 225.344 319.312 226.153 318.844C227.356 318.15 227.258 317.077 225.813 316.244C224.39 315.422 222.498 315.349 221.134 316.136L222.371 316.851C223.104 316.428 224.026 316.43 224.741 316.843C225.424 317.237 225.516 317.772 224.839 318.162C224.24 318.508 223.447 318.545 222.021 318.551L217.086 318.522L216.146 319.065ZM224.73 324.134C226.283 325.031 228.25 325.178 229.42 324.507C230.314 323.986 230.402 323.171 229.708 322.608L229.757 322.58C230.644 322.906 231.8 322.821 232.582 322.374C233.683 321.734 233.486 320.674 232.105 319.876C230.714 319.073 228.881 318.958 227.776 319.599C226.995 320.046 226.84 320.71 227.419 321.23L227.37 321.258C226.381 320.85 224.976 320.904 224.082 321.424C222.911 322.096 223.164 323.23 224.73 324.134ZM225.733 323.555C224.92 323.086 224.843 322.523 225.512 322.145C226.192 321.744 227.244 321.789 228.018 322.236C228.782 322.677 228.852 323.284 228.176 323.683C227.506 324.061 226.536 324.019 225.733 323.555ZM229.003 321.667C228.337 321.283 228.292 320.759 228.923 320.402C229.532 320.042 230.409 320.071 231.089 320.463C231.758 320.85 231.804 321.354 231.194 321.714C230.56 322.072 229.659 322.046 229.003 321.667Z" fill="white"/>
<path d="M236.735 331.065C238.253 331.941 240.342 331.958 241.768 331.134C243.15 330.337 243.185 329.207 241.881 328.454C241.299 328.119 240.552 327.955 239.97 327.983L239.928 327.959L242.038 326.979L245.126 328.762L246.213 328.135L242.049 325.731L237.972 327.651L238.954 328.44C239.462 328.426 240.097 328.586 240.524 328.837C241.309 329.294 241.295 329.958 240.479 330.426C239.679 330.891 238.554 330.901 237.787 330.458C237.138 330.084 237.026 329.545 237.569 329.179L236.307 328.45C235.151 329.159 235.333 330.256 236.735 331.065ZM243.062 334.718C244.597 335.604 246.595 335.742 247.804 335.04C248.705 334.524 248.789 333.827 247.927 333.164L247.983 333.131C248.93 333.483 250.03 333.451 250.833 332.984C251.93 332.354 251.891 331.3 250.458 330.472C249.063 329.667 247.152 329.523 245.922 330.201L247.173 330.923C247.797 330.587 248.733 330.695 249.396 331.077C250.065 331.464 250.104 331.956 249.497 332.302C248.873 332.666 247.938 332.607 247.195 332.178L246.56 331.812L245.558 332.391L246.192 332.757C247.1 333.281 247.184 333.856 246.532 334.228C245.901 334.596 244.916 334.53 244.149 334.087C243.426 333.67 243.244 333.131 243.798 332.775L242.48 332.014C241.302 332.735 241.548 333.844 243.062 334.718ZM248.215 336.042L251.64 338.019L250.308 338.788L251.549 339.505L252.881 338.735L253.799 339.266L254.868 338.648L253.95 338.118L258.727 335.36L257.108 334.425L249.249 335.445L248.215 336.042ZM252.723 337.41L250.616 336.194L250.673 336.161L255.972 335.469L256.028 335.502L252.723 337.41ZM254.789 339.837L258.214 341.815L256.882 342.584L258.123 343.3L259.455 342.531L260.373 343.061L261.442 342.444L260.524 341.914L265.301 339.155L263.682 338.22L255.823 339.24L254.789 339.837ZM259.297 341.205L257.19 339.989L257.247 339.957L262.546 339.265L262.602 339.297L259.297 341.205Z" fill="white"/>
<path d="M100.861 303.246C101.371 302.821 101.24 302.321 100.63 301.969C99.8524 301.52 98.6898 301.54 97.7288 302.095C96.7679 302.65 96.7323 303.321 97.5093 303.77C98.1203 304.123 98.9864 304.198 99.7219 303.903L99.3542 303.691C98.844 303.883 98.2568 303.804 97.8534 303.571C97.3017 303.253 97.2958 302.756 98.0847 302.301C98.8737 301.845 99.7338 301.849 100.285 302.167C100.689 302.4 100.825 302.739 100.493 303.034L100.861 303.246ZM99.9366 305.185C100.334 305.414 100.755 305.411 100.975 305.367L100.992 305.377L100.684 305.555L101.034 305.757L102.535 304.89C103.258 304.473 102.79 304.106 102.499 303.938C102.155 303.74 101.645 303.582 101.052 303.719L101.265 303.979C101.509 303.928 101.869 303.931 102.203 304.123C102.524 304.309 102.512 304.499 102.22 304.668L102.208 304.675C102.039 304.772 101.882 304.664 101.414 304.456C100.936 304.243 100.381 304.031 99.8595 304.332C99.4146 304.589 99.5036 304.935 99.9366 305.185ZM100.304 305.034C100.026 304.873 99.9484 304.685 100.192 304.545C100.459 304.39 100.785 304.483 101.093 304.62C101.259 304.695 101.698 304.901 101.829 304.894L101.509 305.079C101.224 305.243 100.72 305.274 100.304 305.034ZM101.673 306.126L102.023 306.328L103.464 305.496C103.773 305.317 104.241 305.328 104.573 305.52C104.667 305.573 104.745 305.639 104.763 305.657L105.119 305.451C105.082 305.426 104.993 305.371 104.941 305.341C104.668 305.184 104.277 305.136 103.968 305.218L103.945 305.204L104.289 305.006L103.951 304.811L101.673 306.126ZM103.97 307.507C104.409 307.76 104.83 307.688 105.032 307.661L105.073 307.685L104.723 307.887L105.061 308.082L108.098 306.329L107.748 306.127L106.627 306.774L106.598 306.757C106.639 306.644 106.776 306.407 106.331 306.151C105.755 305.818 104.901 305.853 104.183 306.267C103.46 306.685 103.4 307.178 103.97 307.507ZM104.332 307.353C103.893 307.099 104.053 306.746 104.539 306.466C105.02 306.188 105.613 306.099 106.058 306.356C106.485 306.603 106.366 306.931 105.856 307.226C105.34 307.524 104.753 307.596 104.332 307.353ZM106.973 309.186L107.341 309.398L108.699 308.614L110.318 309.549L108.96 310.333L109.328 310.545L112.365 308.792L111.997 308.58L110.645 309.36L109.025 308.425L110.378 307.645L110.01 307.432L106.973 309.186ZM110.895 311.505C111.511 311.861 112.395 311.83 113.101 311.423C113.813 311.012 113.866 310.501 113.25 310.145C112.633 309.789 111.749 309.82 111.037 310.231C110.331 310.638 110.278 311.149 110.895 311.505ZM111.209 311.323C110.74 311.053 110.93 310.697 111.387 310.433C111.844 310.169 112.467 310.056 112.935 310.327C113.404 310.597 113.208 310.957 112.751 311.22C112.294 311.484 111.678 311.594 111.209 311.323ZM115.895 310.83L115.546 310.628L112.508 312.382L112.858 312.584L115.895 310.83ZM114.312 313.478C114.751 313.731 115.172 313.659 115.374 313.632L115.415 313.656L115.065 313.858L115.404 314.053L118.441 312.3L118.091 312.098L116.97 312.745L116.94 312.728C116.981 312.615 117.118 312.378 116.673 312.122C116.098 311.789 115.243 311.824 114.526 312.238C113.802 312.656 113.743 313.149 114.312 313.478ZM114.674 313.324C114.235 313.07 114.395 312.718 114.882 312.437C115.362 312.159 115.955 312.07 116.4 312.327C116.827 312.574 116.709 312.902 116.198 313.197C115.682 313.495 115.095 313.567 114.674 313.324ZM117.001 315.03C117.463 315.297 118.033 315.359 118.484 315.222L118.24 314.972C117.914 315.058 117.589 315.007 117.315 314.849C116.904 314.611 116.886 314.295 117.358 314.004L119.012 314.958L119.16 314.873C120.008 314.383 119.795 313.924 119.32 313.65C118.703 313.294 117.807 313.338 117.107 313.742C116.407 314.147 116.342 314.65 117.001 315.03ZM117.661 313.829C118.039 313.638 118.605 313.6 119.006 313.831C119.385 314.051 119.344 314.355 118.958 314.578L117.661 313.829ZM118.524 315.855L118.874 316.057L120.315 315.224C120.624 315.046 121.092 315.057 121.424 315.248C121.518 315.302 121.596 315.368 121.614 315.385L121.97 315.18C121.933 315.155 121.844 315.1 121.792 315.07C121.519 314.913 121.128 314.865 120.819 314.947L120.796 314.933L121.14 314.735L120.802 314.54L118.524 315.855Z" fill="white" fill-opacity="0.7"/>
<path d="M95.1874 307.407L90.0979 310.345C89.2672 310.821 88.44 310.853 87.7529 310.457C87.1185 310.09 87.0554 309.617 87.6478 309.271L86.5717 308.65C85.3589 309.35 85.5902 310.269 86.8065 310.971C88.1245 311.732 89.793 311.764 91.1775 310.969L96.267 308.03L95.1874 307.407ZM92.0284 314.01C92.9187 314.524 93.8721 314.552 94.475 314.435L94.5171 314.459L93.781 314.884L94.8045 315.475L98.3798 313.411C99.9466 312.506 99.0247 311.614 98.1695 311.12C97.195 310.557 95.9051 310.266 94.5732 310.63L95.3338 311.328C95.8701 311.197 96.6307 311.211 97.3352 311.618C98.0117 312.008 98.0047 312.413 97.3948 312.765L97.3703 312.779C96.9882 313 96.6027 312.769 95.5231 312.276C94.3839 311.755 93.0729 311.306 91.8496 312.012C90.7911 312.624 91.0049 313.419 92.0284 314.01ZM93.0975 313.656C92.5051 313.314 92.3439 312.913 92.8626 312.614C93.4234 312.29 94.121 312.462 94.808 312.765C95.1936 312.935 96.0909 313.348 96.3923 313.348L95.6983 313.749C95.0604 314.117 93.9703 314.16 93.0975 313.656ZM96.2004 316.281L97.2485 316.886L100.568 314.97C101.293 314.551 102.306 314.553 102.902 314.897C103.484 315.233 103.502 315.688 102.916 316.026L99.3376 318.092L100.382 318.695L103.814 316.714C104.462 316.34 105.328 316.297 106.011 316.692C106.565 317.012 106.712 317.453 105.983 317.874L102.471 319.901L103.519 320.507L107.13 318.422C108.36 317.712 108.286 316.961 107.312 316.398C106.537 315.951 105.584 315.83 104.75 316.012L104.693 315.979C105.048 315.504 104.911 315.012 104.192 314.597C103.481 314.186 102.597 314.085 101.781 314.298L101.714 314.259L102.59 313.753L101.584 313.173L96.2004 316.281ZM107.136 322.72C108.31 323.398 109.719 323.544 110.834 323.175L110.021 322.499C109.323 322.684 108.608 322.57 108.012 322.226C107.115 321.708 107.094 321.024 108.103 320.409L111.931 322.619L112.302 322.404C114.248 321.281 113.845 320.17 112.625 319.466C111.125 318.6 108.993 318.689 107.339 319.644C105.667 320.609 105.548 321.803 107.136 322.72ZM108.892 319.958C109.698 319.541 110.914 319.478 111.766 319.97C112.579 320.439 112.509 321.095 111.689 321.573L108.892 319.958ZM118.821 324.642C119.442 324.033 119.333 323.339 118.169 322.667C116.953 321.965 115.449 321.837 114.496 322.388C113.732 322.829 113.686 323.389 114.471 324.102L115.183 324.743C115.586 325.109 115.596 325.383 115.26 325.577C114.843 325.818 114.072 325.749 113.385 325.352C112.757 324.99 112.624 324.602 113.027 324.223L111.86 323.727C111.082 324.379 111.338 325.146 112.547 325.844C113.847 326.595 115.439 326.716 116.413 326.154C117.174 325.715 117.16 325.164 116.399 324.462L115.74 323.855C115.288 323.432 115.232 323.169 115.6 322.96C116.01 322.719 116.753 322.809 117.349 323.153C118.001 323.529 117.941 323.911 117.703 324.191L118.821 324.642ZM118.705 329.274L123.041 331.778L123.974 331.239L120.721 329.361L126.967 325.755L125.884 325.13L118.705 329.274ZM126.405 333.845C127.579 334.523 128.988 334.669 130.103 334.3L129.289 333.624C128.592 333.808 127.877 333.695 127.281 333.351C126.384 332.833 126.363 332.149 127.372 331.534L131.2 333.744L131.571 333.529C133.517 332.406 133.114 331.295 131.894 330.591C130.394 329.725 128.262 329.814 126.608 330.769C124.936 331.734 124.817 332.928 126.405 333.845ZM128.161 331.082C128.967 330.666 130.183 330.603 131.035 331.095C131.848 331.564 131.778 332.22 130.958 332.697L128.161 331.082ZM132.198 337.19C133.372 337.868 134.781 338.013 135.896 337.645L135.083 336.969C134.385 337.153 133.67 337.04 133.074 336.696C132.177 336.178 132.156 335.494 133.165 334.878L136.993 337.088L137.364 336.874C139.31 335.751 138.907 334.64 137.687 333.935C136.187 333.069 134.056 333.158 132.401 334.114C130.729 335.079 130.61 336.273 132.198 337.19ZM133.954 334.427C134.76 334.01 135.976 333.948 136.828 334.439C137.641 334.909 137.571 335.565 136.751 336.042L133.954 334.427Z" fill="white"/>
<path d="M175.897 348.979L177.754 350.051L178.08 349.863L176.591 349.003L177.623 348.407L178.994 349.198L179.32 349.01L177.95 348.219L178.976 347.626L180.441 348.472L180.767 348.284L178.934 347.225L175.897 348.979ZM180.884 349.228L180.481 348.995L180.066 350.071L178.203 350.31L178.607 350.543L180.036 350.348L179.698 351.173L180.101 351.406L180.505 350.324L182.379 350.091L181.976 349.858L180.499 350.081L180.884 349.228ZM179.747 352.188L180.097 352.39L181.301 351.695L181.33 351.712C181.283 351.828 181.158 352.071 181.597 352.325C182.167 352.653 183.021 352.619 183.745 352.201C184.462 351.787 184.522 351.294 183.946 350.962C183.502 350.705 183.092 350.784 182.896 350.808L182.855 350.784L183.217 350.575L182.879 350.379L179.747 352.188ZM182.084 351.236C182.594 350.941 183.163 350.873 183.591 351.119C184.035 351.376 183.881 351.719 183.401 351.996C182.914 352.277 182.303 352.369 181.864 352.116C181.443 351.873 181.568 351.534 182.084 351.236ZM183.146 353.164L183.496 353.366L185.773 352.051L185.423 351.849L183.146 353.164ZM185.981 351.732C186.117 351.811 186.337 351.814 186.467 351.739C186.598 351.664 186.592 351.537 186.456 351.458C186.319 351.379 186.1 351.376 185.969 351.451C185.839 351.527 185.845 351.653 185.981 351.732ZM184.137 353.736L184.487 353.938L185.928 353.106C186.236 352.928 186.705 352.938 187.037 353.13C187.131 353.184 187.209 353.25 187.227 353.267L187.583 353.061C187.546 353.036 187.457 352.982 187.405 352.952C187.132 352.794 186.741 352.746 186.432 352.828L186.409 352.815L186.753 352.616L186.414 352.421L184.137 353.736ZM186.529 355.172C186.991 355.439 187.561 355.501 188.012 355.364L187.768 355.114C187.442 355.199 187.117 355.149 186.843 354.99C186.432 354.753 186.414 354.436 186.886 354.145L188.54 355.1L188.688 355.014C189.536 354.524 189.323 354.066 188.848 353.792C188.231 353.435 187.335 353.48 186.635 353.884C185.935 354.288 185.87 354.792 186.529 355.172ZM187.189 353.971C187.567 353.78 188.133 353.742 188.534 353.973C188.913 354.192 188.872 354.497 188.486 354.72L187.189 353.971ZM191.433 355.907C191.646 355.657 191.617 355.39 191.166 355.13C190.685 354.852 190.057 354.804 189.671 355.027C189.357 355.209 189.333 355.438 189.653 355.736L189.944 356.007C190.12 356.17 190.119 356.296 189.962 356.387C189.766 356.5 189.398 356.472 189.072 356.284C188.786 356.119 188.729 355.944 188.912 355.767L188.497 355.623C188.191 355.894 188.304 356.197 188.769 356.465C189.299 356.771 189.948 356.812 190.341 356.585C190.659 356.402 190.66 356.172 190.353 355.88L190.098 355.637C189.895 355.442 189.864 355.32 190.039 355.219C190.235 355.106 190.585 355.143 190.863 355.304C191.169 355.481 191.126 355.651 191.029 355.777L191.433 355.907Z" fill="white" fill-opacity="0.7"/>
<path d="M167.069 357.334C168.727 358.291 171.051 358.071 173.403 356.713C175.737 355.365 176.109 354.013 174.465 353.064C172.817 352.113 170.483 352.328 168.142 353.675C165.793 355.031 165.411 356.373 167.069 357.334ZM168.005 356.794C167.034 356.233 167.423 355.333 169.218 354.297C171.009 353.267 172.579 353.036 173.547 353.594C174.51 354.151 174.114 355.06 172.327 356.092C170.532 357.128 168.972 357.352 168.005 356.794ZM173.462 361.001C174.927 361.847 176.879 361.962 178.067 361.272C178.979 360.75 179.08 360.056 178.274 359.42L178.33 359.388C179.273 359.71 180.349 359.651 181.152 359.183C182.21 358.576 182.245 357.556 180.864 356.759C179.547 355.998 177.692 355.846 176.49 356.5L177.538 357.105C178.222 356.739 179.242 356.866 179.946 357.273C180.679 357.696 180.714 358.23 180.048 358.611C179.357 359.013 178.344 358.955 177.549 358.495L176.942 358.145L176.059 358.655L176.665 359.005C177.661 359.58 177.731 360.203 177.009 360.62C176.311 361.023 175.232 360.946 174.387 360.458C173.609 360.009 173.402 359.428 173.998 359.036L172.897 358.4C171.772 359.102 172.01 360.163 173.462 361.001ZM187.686 360.422L186.75 359.882L175.842 363.508L176.777 364.048L187.686 360.422ZM181.047 365.267L185.772 367.995L186.701 367.458L183.469 365.593L183.521 365.562L186.441 365.524C189.084 365.516 190.094 365.366 190.896 364.902C192.05 364.237 191.993 363.184 190.64 362.403C189.298 361.628 187.447 361.563 186.136 362.32L187.17 362.917C187.938 362.47 188.94 362.466 189.715 362.913C190.444 363.334 190.549 363.913 189.834 364.326C189.2 364.692 188.366 364.736 186.778 364.763L181.832 364.813L181.047 365.267ZM188.197 367.776L191.601 369.741L190.199 370.551L191.233 371.148L192.635 370.338L193.585 370.887L194.503 370.356L193.553 369.808L198.411 367.003L197.076 366.232L189.074 367.27L188.197 367.776ZM192.526 369.215L190.251 367.902L190.307 367.869L196.038 367.122L196.094 367.155L192.526 369.215Z" fill="white"/>
<path d="M238.347 382.624C238.857 382.199 238.727 381.699 238.116 381.346C237.339 380.898 236.176 380.918 235.215 381.473C234.254 382.028 234.218 382.699 234.995 383.148C235.606 383.501 236.472 383.576 237.208 383.281L236.84 383.069C236.33 383.261 235.743 383.182 235.339 382.949C234.788 382.631 234.782 382.134 235.571 381.679C236.36 381.223 237.22 381.227 237.772 381.545C238.175 381.778 238.311 382.117 237.979 382.412L238.347 382.624ZM240.015 382.491L239.629 382.268L237.707 384.666L238.087 384.885L242.239 383.775L241.854 383.553L238.395 384.508L238.36 384.488L240.015 382.491ZM242.837 384.12L242.451 383.898L240.529 386.295L240.909 386.514L245.061 385.405L244.676 385.182L241.218 386.137L241.182 386.117L242.837 384.12Z" fill="white" fill-opacity="0.7"/>
<path d="M222.607 389.262L227.332 391.99L228.26 391.454L225.029 389.588L225.081 389.557L228.001 389.519C230.644 389.511 231.654 389.361 232.456 388.898C233.609 388.232 233.553 387.18 232.2 386.398C230.858 385.623 229.007 385.559 227.696 386.315L228.73 386.912C229.498 386.465 230.5 386.461 231.275 386.908C232.004 387.329 232.109 387.908 231.394 388.321C230.76 388.687 229.925 388.732 228.338 388.758L223.392 388.809L222.607 389.262ZM231.04 394.269C232.698 395.226 235.022 395.005 237.374 393.647C239.708 392.3 240.08 390.948 238.436 389.999C236.789 389.047 234.454 389.262 232.113 390.61C229.764 391.966 229.382 393.307 231.04 394.269ZM231.976 393.728C231.005 393.168 231.394 392.267 233.189 391.231C234.98 390.201 236.55 389.97 237.518 390.529C238.482 391.085 238.086 391.994 236.298 393.026C234.503 394.062 232.943 394.287 231.976 393.728ZM236.283 395.539L239.687 397.504L238.284 398.314L239.318 398.911L240.721 398.101L241.67 398.649L242.589 398.119L241.639 397.571L246.497 394.766L245.162 393.995L237.159 395.033L236.283 395.539ZM240.612 396.978L238.337 395.664L238.393 395.632L244.124 394.885L244.18 394.918L240.612 396.978Z" fill="white"/>
</g>
<g clip-path="url(#clip1)">
<rect width="306.858" height="175.348" rx="17.5348" transform="matrix(0.866025 -0.5 0.866025 0.5 55 199.429)" fill="white"/>
<mask id="mask1" style="mask-type:alpha" maskUnits="userSpaceOnUse" x="63" y="51" width="401" height="231">
<rect width="306.858" height="175.348" rx="17.5348" transform="matrix(0.866025 -0.5 0.866025 0.5 55 199.429)" fill="#C4C4C4"/>
</mask>
<g mask="url(#mask1)">
<g filter="url(#filter0_f)">
<path d="M243.381 90.7618C264.882 81.5535 254.279 73.8965 267.65 64.2866C315.15 30.1475 401.354 74.0778 358.73 112.813C318.404 149.46 198.401 141.902 198.401 141.902C198.401 141.902 170.44 137.687 173.639 127.606C176.527 118.508 188.996 111.668 204.589 105.277C216.908 100.228 231.19 95.9826 243.381 90.7618Z" fill="#7F30FF"/>
</g>
<g filter="url(#filter1_f)">
<path d="M300.069 109.763C324.091 101.514 304.531 88.65 317.013 78.1293C361.357 40.7546 508.797 119.905 474.128 164.688C441.327 207.056 269.975 171.267 269.975 171.267C269.975 171.267 228.497 159.522 226.563 146.203C224.817 134.183 237.8 127.319 255.402 121.734C269.308 117.322 286.449 114.44 300.069 109.763Z" fill="#00B0FF"/>
</g>
<g filter="url(#filter2_f)">
<ellipse rx="78.0297" ry="73.2076" transform="matrix(0.866025 -0.5 0.866025 0.5 329.479 170.716)" fill="#0038FF"/>
</g>
<g filter="url(#filter3_f)">
<path d="M170.103 221.88C189.688 243.36 207.472 258.078 246.78 266.149C323.417 281.885 411.433 230.595 385.316 186.165C364.674 151.049 302.606 149.081 241.277 138.323C214.216 133.576 197.072 126.499 170.706 130.34C111.704 138.934 140.304 189.197 170.103 221.88Z" fill="#FF4880"/>
</g>
<g filter="url(#filter4_f)">
<ellipse rx="66.6321" ry="126.689" transform="matrix(0.866025 -0.5 0.866025 0.5 181.42 230.772)" fill="#FF8000"/>
</g>
</g>
<path d="M192.959 258.721C192.224 258.426 191.357 258.502 190.747 258.855C189.969 259.303 190.005 259.974 190.966 260.529C191.927 261.084 193.09 261.105 193.867 260.656C194.478 260.303 194.608 259.803 194.098 259.379L193.73 259.591C194.062 259.885 193.926 260.224 193.523 260.457C192.971 260.776 192.111 260.779 191.322 260.324C190.533 259.868 190.539 259.372 191.091 259.053C191.494 258.82 192.081 258.742 192.591 258.933L192.959 258.721ZM196.318 259.255C196.715 259.025 196.709 258.782 196.632 258.655L196.65 258.645L196.958 258.823L197.308 258.621L195.807 257.755C195.084 257.337 194.449 257.607 194.158 257.775C193.814 257.974 193.542 258.268 193.779 258.611L194.23 258.487C194.141 258.347 194.145 258.139 194.479 257.946C194.801 257.761 195.13 257.767 195.422 257.936L195.434 257.943C195.603 258.04 195.416 258.131 195.054 258.402C194.686 258.678 194.319 258.998 194.841 259.299C195.285 259.556 195.885 259.505 196.318 259.255ZM196.057 259.042C195.778 259.203 195.452 259.248 195.208 259.107C194.941 258.953 195.102 258.765 195.339 258.587C195.469 258.491 195.825 258.237 195.813 258.162L196.134 258.347C196.418 258.511 196.472 258.803 196.057 259.042ZM197.947 258.252L198.297 258.05L196.856 257.218C196.547 257.04 196.565 256.769 196.897 256.577C196.991 256.524 197.105 256.478 197.134 256.468L196.778 256.262C196.735 256.284 196.641 256.335 196.589 256.365C196.316 256.523 196.233 256.749 196.375 256.927L196.351 256.941L196.007 256.742L195.669 256.937L197.947 258.252ZM200.339 256.926C200.778 256.673 200.653 256.429 200.606 256.313L200.648 256.289L200.997 256.491L201.336 256.296L198.298 254.542L197.949 254.744L199.07 255.392L199.04 255.409C198.844 255.385 198.435 255.306 197.99 255.563C197.415 255.895 197.474 256.388 198.192 256.803C198.915 257.22 199.77 257.255 200.339 256.926ZM200.072 256.717C199.633 256.97 199.022 256.878 198.536 256.597C198.055 256.32 197.901 255.977 198.346 255.72C198.773 255.474 199.343 255.542 199.853 255.837C200.369 256.135 200.493 256.474 200.072 256.717ZM203.247 255.192L203.615 254.98L202.257 254.196L203.876 253.261L205.234 254.045L205.602 253.833L202.565 252.079L202.197 252.291L203.55 253.072L201.93 254.007L200.578 253.226L200.21 253.439L203.247 255.192ZM207.264 252.928C207.881 252.572 207.827 252.062 207.121 251.654C206.41 251.243 205.526 251.212 204.909 251.568C204.292 251.925 204.345 252.435 205.057 252.846C205.763 253.253 206.647 253.284 207.264 252.928ZM206.949 252.746C206.481 253.017 205.864 252.907 205.407 252.644C204.95 252.38 204.755 252.02 205.223 251.75C205.692 251.479 206.315 251.592 206.771 251.856C207.228 252.12 207.418 252.476 206.949 252.746ZM206.096 250.041L205.746 250.243L208.783 251.996L209.133 251.794L206.096 250.041ZM210.681 250.955C211.12 250.701 210.996 250.458 210.948 250.342L210.99 250.318L211.34 250.52L211.678 250.325L208.641 248.571L208.291 248.773L209.412 249.421L209.382 249.438C209.186 249.414 208.777 249.335 208.332 249.592C207.757 249.924 207.816 250.417 208.534 250.832C209.258 251.249 210.112 251.284 210.681 250.955ZM210.414 250.746C209.975 250.999 209.364 250.907 208.878 250.626C208.397 250.349 208.243 250.006 208.688 249.749C209.115 249.503 209.685 249.571 210.195 249.866C210.711 250.164 210.835 250.503 210.414 250.746ZM213.37 249.403C213.833 249.135 213.939 248.807 213.702 248.546L213.269 248.687C213.417 248.875 213.33 249.063 213.055 249.221C212.645 249.458 212.096 249.469 211.592 249.196L213.245 248.242L213.097 248.156C212.249 247.666 211.454 247.79 210.979 248.064C210.362 248.42 210.44 248.937 211.139 249.341C211.839 249.745 212.711 249.783 213.37 249.403ZM211.289 249.022C210.959 248.803 210.893 248.476 211.294 248.245C211.673 248.026 212.201 248.05 212.587 248.272L211.289 249.022ZM214.798 248.523L215.148 248.321L213.706 247.489C213.398 247.311 213.416 247.04 213.748 246.849C213.841 246.795 213.956 246.749 213.985 246.739L213.629 246.534C213.586 246.555 213.491 246.606 213.44 246.636C213.167 246.794 213.084 247.02 213.226 247.198L213.202 247.212L212.858 247.013L212.52 247.208L214.798 248.523Z" fill="white" fill-opacity="0.7"/>
<path d="M204.555 267.752L209.098 265.129L208.166 264.591L204.706 266.588L202.508 265.319L205.691 263.482L204.762 262.945L201.579 264.783L199.392 263.52L202.81 261.547L201.877 261.009L197.377 263.607L204.555 267.752ZM204.288 259.617L203.24 260.222L210.418 264.367L211.467 263.761L204.288 259.617ZM206.746 258.198L205.698 258.803L212.876 262.947L213.925 262.342L206.746 258.198ZM217.02 260.692C217.911 260.178 217.96 259.628 217.757 259.28L217.799 259.256L218.535 259.681L219.558 259.09L215.983 257.025C214.416 256.121 212.87 256.653 212.015 257.147C211.041 257.709 210.536 258.454 211.167 259.223L212.376 258.784C212.148 258.474 212.173 258.035 212.877 257.629C213.554 257.238 214.255 257.242 214.865 257.594L214.889 257.608C215.271 257.829 214.872 258.051 214.017 258.675C213.116 259.333 212.338 260.089 213.561 260.796C214.619 261.407 215.997 261.283 217.02 260.692ZM216.407 260.075C215.815 260.417 215.121 260.51 214.602 260.211C214.041 259.887 214.339 259.484 214.865 259.088C215.159 258.865 215.874 258.347 215.874 258.173L216.568 258.574C217.206 258.942 217.28 259.571 216.407 260.075ZM225.056 255.915L226.15 255.284L222.284 251.307L222.34 251.275L229.227 253.507L230.317 252.878L225.133 247.582L223.991 248.242L228.158 252.259L228.092 252.297L221.074 249.925L219.946 250.577L224.05 254.626L223.984 254.665L217.026 252.263L215.887 252.92L225.056 255.915ZM235.062 250.264C236.579 249.388 236.46 248.174 234.795 247.212C233.12 246.245 231.017 246.176 229.499 247.053C227.981 247.929 228.1 249.143 229.776 250.11C231.441 251.072 233.544 251.14 235.062 250.264ZM234.185 249.754C233.193 250.327 231.865 250.094 230.831 249.497C229.8 248.902 229.387 248.129 230.379 247.556C231.364 246.988 232.703 247.227 233.733 247.822C234.767 248.419 235.17 249.186 234.185 249.754ZM241.009 246.83C242.527 245.954 242.408 244.74 240.743 243.779C239.067 242.811 236.964 242.743 235.446 243.619C233.929 244.495 234.048 245.709 235.723 246.677C237.388 247.638 239.491 247.707 241.009 246.83ZM240.133 246.32C239.141 246.893 237.812 246.66 236.778 246.063C235.748 245.469 235.334 244.695 236.326 244.123C237.311 243.554 238.65 243.793 239.681 244.388C240.715 244.985 241.118 245.752 240.133 246.32ZM246.701 243.54C247.682 242.974 247.468 242.405 247.314 242.098L247.402 242.047L248.239 242.531L249.263 241.94L242.084 237.795L241.036 238.4L243.704 239.94L243.641 239.977C243.118 239.894 242.151 239.748 241.148 240.327C239.848 241.078 239.918 242.223 241.664 243.231C243.406 244.237 245.393 244.295 246.701 243.54ZM246.038 242.891C245.102 243.431 243.791 243.237 242.712 242.614C241.643 241.996 241.317 241.258 242.263 240.711C243.178 240.183 244.415 240.331 245.54 240.98C246.673 241.634 246.943 242.369 246.038 242.891Z" fill="white"/>
<path d="M267.841 217.899L269.698 216.827L269.372 216.639L267.883 217.498L266.851 216.902L268.221 216.111L267.895 215.923L266.525 216.714L265.498 216.122L266.964 215.276L266.637 215.087L264.804 216.146L267.841 217.899ZM268.273 215.02L267.87 215.253L269.732 215.492L270.147 216.568L270.551 216.335L270.213 215.509L271.642 215.705L272.046 215.472L270.171 215.239L269.768 214.157L269.364 214.389L269.75 215.242L268.273 215.02ZM273.399 215.677L273.749 215.474L272.545 214.779L272.575 214.762C272.776 214.79 273.198 214.861 273.637 214.608C274.206 214.279 274.147 213.786 273.423 213.368C272.705 212.954 271.851 212.92 271.276 213.252C270.831 213.509 270.967 213.745 271.009 213.858L270.967 213.882L270.605 213.673L270.267 213.868L273.399 215.677ZM271.75 214.327C271.24 214.033 271.121 213.704 271.548 213.457C271.993 213.2 272.587 213.289 273.067 213.567C273.553 213.848 273.714 214.2 273.275 214.454C272.854 214.697 272.266 214.625 271.75 214.327ZM275.09 213.714L275.44 213.512L273.162 212.197L272.812 212.399L275.09 213.714ZM272.61 212.077C272.747 211.998 272.753 211.872 272.622 211.796C272.492 211.721 272.272 211.724 272.136 211.803C271.999 211.882 271.993 212.009 272.124 212.084C272.254 212.159 272.474 212.156 272.61 212.077ZM276.081 213.142L276.431 212.94L274.989 212.108C274.681 211.93 274.699 211.659 275.031 211.467C275.124 211.413 275.238 211.368 275.268 211.358L274.912 211.152C274.869 211.174 274.774 211.225 274.722 211.255C274.45 211.413 274.366 211.639 274.509 211.817L274.485 211.83L274.141 211.632L273.803 211.827L276.081 213.142ZM278.568 211.761C279.03 211.494 279.137 211.165 278.9 210.905L278.467 211.045C278.615 211.234 278.528 211.421 278.253 211.579C277.843 211.817 277.294 211.827 276.79 211.555L278.443 210.6L278.295 210.514C277.447 210.025 276.652 210.148 276.177 210.422C275.56 210.778 275.637 211.295 276.337 211.699C277.037 212.103 277.909 212.141 278.568 211.761ZM276.487 211.38C276.156 211.162 276.091 210.835 276.492 210.603C276.871 210.384 277.399 210.408 277.785 210.631L276.487 211.38ZM279.842 208.93C279.409 208.806 278.946 208.823 278.495 209.084C278.015 209.361 277.932 209.724 278.317 209.947C278.631 210.128 279.029 210.142 279.545 209.957L280.014 209.789C280.297 209.687 280.515 209.688 280.672 209.779C280.868 209.892 280.82 210.104 280.494 210.293C280.208 210.458 279.905 210.49 279.598 210.385L279.349 210.625C279.818 210.801 280.343 210.736 280.808 210.467C281.338 210.162 281.409 209.787 281.016 209.56C280.699 209.376 280.3 209.376 279.794 209.553L279.373 209.7C279.036 209.817 278.824 209.835 278.649 209.734C278.454 209.621 278.519 209.419 278.798 209.258C279.103 209.082 279.398 209.107 279.616 209.162L279.842 208.93Z" fill="white" fill-opacity="0.7"/>
<path d="M282.314 222.996C283.972 222.039 283.59 220.697 281.238 219.339C278.903 217.991 276.562 217.777 274.918 218.726C273.27 219.677 273.642 221.025 275.976 222.377C278.325 223.732 280.649 223.953 282.314 222.996ZM281.378 222.455C280.407 223.016 278.847 222.791 277.052 221.755C275.268 220.721 274.869 219.814 275.836 219.256C276.8 218.699 278.374 218.928 280.162 219.96C281.956 220.996 282.345 221.897 281.378 222.455ZM281.177 215.112C279.656 215.974 279.754 217.168 281.114 217.953C282.488 218.742 284.469 218.74 285.713 218.022C286.473 217.583 286.754 216.992 286.519 216.431L286.575 216.399C288.223 217.354 288.566 218.269 287.515 218.876C286.827 219.273 285.965 219.285 285.212 219.012L284.143 219.629C285.46 220.208 287.178 220.163 288.461 219.422C290.129 218.459 289.74 217.028 287.227 215.577C284.602 214.066 282.467 214.379 281.177 215.112ZM282.092 215.636C282.923 215.156 284.241 215.209 285.029 215.664C285.832 216.124 285.885 216.903 285.064 217.376C284.241 217.852 282.986 217.816 282.152 217.338C281.317 216.856 281.268 216.112 282.092 215.636ZM287.575 211.143L286.639 211.683L292.92 217.981L293.856 217.441L287.575 211.143ZM298.564 213.59C300.029 212.744 300.229 211.616 299.033 210.93C298.129 210.404 296.927 210.346 295.826 210.811L295.77 210.779C296.327 210.234 296.226 209.613 295.416 209.149C294.365 208.538 292.598 208.518 291.217 209.315C289.899 210.076 289.636 211.147 290.768 211.841L291.816 211.236C291.182 210.841 291.403 210.252 292.107 209.846C292.84 209.423 293.765 209.402 294.424 209.787C295.122 210.186 295.02 210.77 294.224 211.23L293.618 211.58L294.501 212.09L295.108 211.74C296.103 211.165 297.183 211.125 297.905 211.542C298.602 211.944 298.469 212.568 297.624 213.055C296.846 213.505 295.84 213.624 295.16 213.28L294.06 213.915C295.276 214.565 297.113 214.427 298.564 213.59ZM304.947 209.929C306.605 208.971 306.223 207.63 303.871 206.272C301.536 204.924 299.195 204.709 297.551 205.659C295.903 206.61 296.275 207.958 298.609 209.309C300.958 210.665 303.282 210.886 304.947 209.929ZM304.011 209.388C303.04 209.949 301.48 209.724 299.685 208.688C297.901 207.654 297.502 206.747 298.469 206.189C299.433 205.632 301.007 205.861 302.794 206.893C304.589 207.929 304.978 208.83 304.011 209.388Z" fill="white"/>
<path d="M326.115 181.843C325.38 181.548 324.513 181.624 323.903 181.977C323.125 182.425 323.161 183.096 324.122 183.651C325.083 184.206 326.246 184.227 327.023 183.778C327.634 183.425 327.764 182.925 327.254 182.501L326.886 182.713C327.218 183.007 327.082 183.346 326.679 183.579C326.127 183.898 325.267 183.901 324.478 183.446C323.689 182.99 323.695 182.494 324.247 182.175C324.65 181.942 325.237 181.864 325.747 182.055L326.115 181.843ZM325.885 180.88L325.499 181.103L329.652 182.212L330.031 181.993L328.109 179.596L327.724 179.818L329.379 181.815L329.343 181.836L325.885 180.88ZM328.707 179.251L328.321 179.473L332.474 180.583L332.853 180.364L330.931 177.966L330.546 178.189L332.201 180.186L332.165 180.206L328.707 179.251Z" fill="white" fill-opacity="0.7"/>
<path d="M340.081 189.619C341.525 188.785 341.535 187.601 340.133 186.796C338.749 185.993 336.772 185.968 335.464 186.723C334.932 187.031 334.641 187.433 334.634 187.753L334.592 187.777L332.811 186.486L335.857 184.728L334.928 184.191L330.981 186.47L334.195 188.791L335.335 188.304C335.363 188.008 335.682 187.634 336.116 187.383C336.975 186.895 338.23 186.907 339.106 187.413C339.969 187.911 339.993 188.617 339.169 189.093C338.475 189.494 337.483 189.556 336.81 189.233L335.759 189.84C336.944 190.475 338.763 190.38 340.081 189.619ZM346.352 186.022C348.01 185.065 347.628 183.723 345.276 182.366C342.942 181.018 340.6 180.803 338.956 181.752C337.309 182.704 337.681 184.051 340.015 185.403C342.363 186.759 344.687 186.98 346.352 186.022ZM345.416 185.482C344.446 186.043 342.886 185.818 341.091 184.782C339.307 183.748 338.907 182.841 339.875 182.283C340.839 181.726 342.413 181.955 344.2 182.987C345.995 184.023 346.384 184.924 345.416 185.482ZM352.71 182.328C354.224 181.47 354.14 180.271 352.759 179.478C351.388 178.683 349.404 178.691 348.16 179.409C347.403 179.847 347.112 180.435 347.35 180.998L347.298 181.028C345.671 180.085 345.321 179.171 346.373 178.563C347.063 178.165 347.918 178.157 348.661 178.416L349.73 177.799C348.43 177.238 346.709 177.276 345.426 178.017C343.758 178.98 344.15 180.409 346.646 181.85C349.285 183.378 351.423 183.058 352.71 182.328ZM351.795 181.803C350.961 182.285 349.65 182.232 348.844 181.767C348.044 181.302 347.981 180.529 348.809 180.051C349.629 179.577 350.894 179.612 351.721 180.093C352.573 180.581 352.615 181.33 351.795 181.803Z" fill="white"/>
<path d="M150.289 233.29C151.806 232.414 151.834 231.208 150.408 230.384C149.027 229.587 147.071 229.567 145.767 230.32C145.185 230.656 144.901 231.087 144.95 231.423L144.908 231.447L143.212 230.229L146.3 228.446L145.213 227.818L141.049 230.222L144.375 232.576L145.742 232.009C145.718 231.716 145.995 231.35 146.429 231.103C147.222 230.649 148.371 230.658 149.181 231.129C149.987 231.591 150.005 232.24 149.237 232.683C148.589 233.058 147.656 233.122 147.022 232.809L145.76 233.537C146.987 234.205 148.887 234.1 150.289 233.29ZM149.682 225.238L148.445 225.952L147.807 227.644L148.999 228.332L149.605 226.744L149.647 226.719L155.56 230.133L156.861 229.383L149.682 225.238ZM153.899 222.69C152.332 223.583 152.367 224.797 153.769 225.606C155.126 226.385 157.068 226.394 158.326 225.667C159.101 225.22 159.399 224.615 159.129 224.058L159.178 224.03C160.709 224.918 161.067 225.768 160.075 226.341C159.455 226.699 158.68 226.734 157.979 226.479L156.7 227.217C158.035 227.818 159.84 227.776 161.2 226.991C162.921 225.997 162.581 224.534 160.107 223.109C157.488 221.601 155.283 221.899 153.899 222.69ZM154.954 223.295C155.722 222.852 156.924 222.895 157.656 223.318C158.403 223.745 158.449 224.455 157.692 224.892C156.927 225.333 155.774 225.303 155.003 224.862C154.232 224.416 154.193 223.734 154.954 223.295ZM165.154 224.595L166.504 223.815L163.486 218.552L162.374 217.91L157.485 220.733L158.571 221.361L162.115 219.315L162.164 219.343L165.154 224.595Z" fill="white"/>
<path d="M172.036 212.219C170.469 213.112 170.504 214.326 171.906 215.135C173.263 215.914 175.205 215.923 176.463 215.196C177.238 214.749 177.536 214.144 177.266 213.587L177.315 213.559C178.846 214.447 179.204 215.297 178.212 215.87C177.592 216.228 176.817 216.263 176.116 216.008L174.837 216.746C176.172 217.347 177.977 217.305 179.337 216.52C181.058 215.526 180.718 214.063 178.244 212.638C175.625 211.13 173.42 211.428 172.036 212.219ZM173.091 212.824C173.859 212.381 175.061 212.424 175.793 212.846C176.54 213.273 176.586 213.984 175.829 214.421C175.064 214.862 173.911 214.832 173.14 214.391C172.369 213.945 172.33 213.263 173.091 212.824ZM185.815 212.78C187.333 211.903 187.361 210.697 185.934 209.874C184.553 209.076 182.597 209.056 181.293 209.809C180.711 210.145 180.427 210.576 180.476 210.912L180.434 210.936L178.738 209.718L181.826 207.935L180.739 207.308L176.575 209.712L179.902 212.065L181.269 211.499C181.244 211.205 181.521 210.839 181.956 210.592C182.748 210.139 183.897 210.147 184.707 210.618C185.513 211.08 185.531 211.729 184.763 212.173C184.115 212.547 183.182 212.612 182.548 212.298L181.286 213.027C182.513 213.694 184.413 213.589 185.815 212.78ZM192.142 209.127C193.677 208.24 193.915 207.087 192.699 206.389C191.805 205.869 190.599 205.82 189.45 206.318L189.394 206.286C190.003 205.739 189.947 205.104 189.138 204.64C188.048 204.007 186.221 204.029 184.788 204.857C183.393 205.662 183.144 206.765 184.318 207.476L185.569 206.753C184.988 206.393 185.173 205.852 185.836 205.47C186.505 205.083 187.357 205.061 187.956 205.411C188.587 205.772 188.486 206.312 187.743 206.741L187.108 207.107L188.111 207.686L188.745 207.32C189.653 206.796 190.648 206.747 191.293 207.123C191.931 207.488 191.816 208.056 191.048 208.5C190.326 208.916 189.394 209.022 188.777 208.702L187.459 209.463C188.707 210.143 190.627 210.001 192.142 209.127ZM198.687 205.393C200.422 204.395 200.089 203.009 197.733 201.649C195.392 200.297 192.998 200.117 191.273 201.112C189.549 202.108 189.861 203.486 192.202 204.842C194.554 206.2 196.955 206.392 198.687 205.393ZM197.59 204.759C196.696 205.275 195.238 205.081 193.517 204.083C191.81 203.094 191.466 202.252 192.356 201.738C193.25 201.222 194.708 201.42 196.422 202.406C198.147 203.401 198.487 204.241 197.59 204.759Z" fill="white"/>
<path d="M211.271 198.082C212.831 197.193 212.806 195.977 211.383 195.159C210.03 194.374 208.081 194.366 206.823 195.093C206.052 195.538 205.747 196.147 206.02 196.702L205.971 196.73C204.464 195.856 204.1 195.006 205.095 194.431C205.712 194.075 206.487 194.04 207.17 194.281L208.449 193.542C207.135 192.962 205.326 192.998 203.97 193.781C202.245 194.777 202.592 196.236 205.046 197.653C207.675 199.174 209.887 198.873 211.271 198.082ZM210.213 197.479C209.445 197.922 208.25 197.879 207.496 197.448C206.749 197.009 206.7 196.309 207.461 195.87C208.222 195.431 209.382 195.457 210.149 195.904C210.938 196.355 210.973 197.039 210.213 197.479ZM217.594 194.431C219.147 193.534 219.403 192.399 218.239 191.723C217.339 191.207 215.926 191.157 214.952 191.557L214.903 191.529C215.467 191.017 215.32 190.349 214.545 189.898C213.437 189.262 211.601 189.376 210.22 190.173C208.828 190.976 208.628 192.035 209.739 192.672C210.514 193.124 211.664 193.213 212.565 192.879L212.614 192.907C211.906 193.478 212 194.289 212.901 194.805C214.065 195.481 216.028 195.336 217.594 194.431ZM216.592 193.852C215.779 194.322 214.804 194.366 214.149 193.98C213.455 193.587 213.532 192.98 214.307 192.533C215.071 192.091 216.122 192.051 216.813 192.442C217.468 192.828 217.395 193.389 216.592 193.852ZM213.322 191.964C212.656 192.348 211.748 192.375 211.131 192.011C210.507 191.658 210.556 191.152 211.236 190.76C211.906 190.373 212.778 190.347 213.402 190.699C214.023 191.065 213.977 191.586 213.322 191.964ZM224.043 190.708C225.603 189.819 225.578 188.603 224.155 187.786C222.802 187 220.853 186.992 219.595 187.719C218.824 188.164 218.519 188.773 218.792 189.328L218.743 189.356C217.236 188.482 216.872 187.632 217.867 187.057C218.484 186.701 219.259 186.666 219.942 186.907L221.221 186.169C219.907 185.588 218.098 185.624 216.742 186.407C215.017 187.403 215.364 188.862 217.818 190.279C220.447 191.801 222.659 191.499 224.043 190.708ZM222.985 190.105C222.217 190.548 221.022 190.505 220.268 190.074C219.521 189.635 219.472 188.935 220.233 188.496C220.994 188.057 222.154 188.083 222.922 188.53C223.71 188.982 223.745 189.666 222.985 190.105ZM227.717 188.474L232.638 185.632L231.551 185.005L228.425 186.81L228.376 186.782L228.355 185.341C228.411 183.762 228.144 183.163 227.335 182.696C226.132 182.002 224.275 182.058 222.83 182.892C221.407 183.714 221.281 184.807 222.645 185.594L223.882 184.879C223.149 184.456 223.153 183.924 223.868 183.511C224.551 183.117 225.477 183.064 226.153 183.455C226.753 183.801 226.816 184.258 226.826 185.082L226.777 187.931L227.717 188.474Z" fill="white"/>
<path d="M235.483 175.587C233.917 176.48 233.952 177.694 235.354 178.503C236.71 179.283 238.652 179.291 239.91 178.564C240.685 178.117 240.983 177.512 240.713 176.955L240.762 176.927C242.294 177.815 242.652 178.665 241.66 179.238C241.039 179.596 240.264 179.631 239.563 179.376L238.284 180.114C239.62 180.715 241.425 180.673 242.785 179.888C244.506 178.894 244.166 177.431 241.691 176.006C239.073 174.499 236.868 174.796 235.483 175.587ZM236.538 176.192C237.306 175.749 238.508 175.792 239.241 176.215C239.988 176.642 240.033 177.352 239.276 177.789C238.512 178.23 237.359 178.2 236.588 177.759C235.816 177.314 235.778 176.632 236.538 176.192ZM246.739 177.492L248.088 176.712L245.07 171.449L243.959 170.807L239.069 173.63L240.156 174.258L243.7 172.212L243.749 172.24L246.739 177.492ZM254.779 172.963C256.315 172.076 256.553 170.923 255.337 170.224C254.443 169.704 253.237 169.656 252.087 170.154L252.031 170.121C252.641 169.575 252.585 168.939 251.776 168.476C250.685 167.843 248.859 167.865 247.426 168.692C246.031 169.498 245.782 170.601 246.956 171.311L248.207 170.589C247.625 170.228 247.811 169.688 248.474 169.306C249.143 168.919 249.995 168.897 250.594 169.247C251.225 169.607 251.124 170.148 250.38 170.577L249.746 170.943L250.748 171.522L251.383 171.155C252.291 170.631 253.286 170.583 253.931 170.959C254.569 171.323 254.453 171.892 253.686 172.335C252.964 172.752 252.031 172.857 251.414 172.538L250.097 173.298C251.344 173.978 253.265 173.837 254.779 172.963ZM257.073 169.987L260.497 168.01L261.829 168.779L263.07 168.063L261.738 167.294L262.656 166.763L261.587 166.146L260.669 166.676L255.891 163.918L254.272 164.853L256.039 169.39L257.073 169.987ZM259.442 167.385L257.336 168.601L257.28 168.569L256.081 165.509L256.137 165.476L259.442 167.385Z" fill="white"/>
<path d="M97.4575 198.734C95.6769 197.99 93.5773 198.166 92.0595 199.042C90.2018 200.114 90.2228 201.709 92.5187 203.035C94.8146 204.36 97.5697 204.376 99.4344 203.3C101.012 202.389 101.177 201.153 99.9918 200.197L98.8946 200.827C99.6272 201.464 99.3608 202.201 98.453 202.725C97.2227 203.435 95.3509 203.427 93.5948 202.413C91.8527 201.408 91.8212 200.321 93.0585 199.606C93.9734 199.078 95.2563 198.933 96.3639 199.366L97.4575 198.734ZM103.514 200.831L104.562 200.226L101.274 198.328C100.569 197.921 100.604 197.314 101.347 196.885C101.565 196.76 101.849 196.64 101.957 196.606L100.955 196.027C100.836 196.08 100.618 196.193 100.485 196.27C99.8542 196.634 99.6719 197.152 100.054 197.599L99.9979 197.632L99.1426 197.138L98.1296 197.723L103.514 200.831ZM109.538 197.479C110.712 196.801 110.965 195.987 110.327 195.344L109.156 195.813C109.475 196.216 109.279 196.629 108.683 196.973C107.786 197.491 106.601 197.503 105.535 196.92L109.363 194.71L108.991 194.496C107.046 193.372 105.122 193.605 103.902 194.309C102.402 195.176 102.556 196.406 104.21 197.361C105.882 198.326 107.95 198.395 109.538 197.479ZM104.754 196.465C104.031 195.999 103.923 195.297 104.775 194.805C105.588 194.336 106.723 194.376 107.551 194.85L104.754 196.465ZM115.023 194.308C116.004 193.741 115.791 193.173 115.636 192.865L115.724 192.814L116.562 193.298L117.585 192.707L110.407 188.563L109.358 189.168L112.026 190.708L111.963 190.744C111.441 190.661 110.473 190.515 109.471 191.094C108.17 191.845 108.24 192.99 109.986 193.998C111.728 195.004 113.715 195.063 115.023 194.308ZM114.36 193.658C113.425 194.199 112.114 194.004 111.034 193.381C109.965 192.764 109.639 192.025 110.585 191.479C111.5 190.951 112.737 191.098 113.863 191.748C114.995 192.402 115.265 193.136 114.36 193.658ZM119.081 191.843L120.129 191.238L114.745 188.13L113.697 188.735L119.081 191.843ZM113.396 187.95C113.757 187.741 113.778 187.405 113.434 187.207C113.091 187.009 112.505 187.019 112.144 187.227C111.78 187.438 111.766 187.774 112.109 187.972C112.453 188.17 113.031 188.16 113.396 187.95ZM118.668 185.865L117.564 186.502L116.274 185.758L115.226 186.363L116.516 187.107L115.727 187.563L116.569 188.048L117.357 187.593L120.537 189.429C121.511 189.995 122.731 189.837 123.54 189.35C123.87 189.155 124.031 188.99 124.108 188.892L123.053 188.502C122.997 188.55 122.899 188.643 122.731 188.741C122.391 188.937 121.974 189.048 121.367 188.698L118.405 186.988L119.51 186.351L118.668 185.865Z" fill="white"/>
<path d="M326.699 78.7893L319.142 83.1526L305.561 75.3115L313.118 70.9483L326.699 78.7893Z" fill="#FF5F00"/>
<path d="M312.831 78.9543C310.076 77.3637 308.913 75.2022 309.34 73.1295C306.62 73.3151 304.09 74.0257 302.157 75.1444C297.386 77.8988 297.387 82.3636 302.157 85.1173C306.926 87.871 314.659 87.8717 319.429 85.118C321.368 84.0013 322.599 82.5404 322.919 80.9706C319.33 81.2166 315.586 80.545 312.831 78.9543Z" fill="#EB001B"/>
<path d="M330.103 68.9823C334.873 71.7361 334.874 76.2008 330.104 78.9545C328.17 80.0739 325.64 80.7845 322.92 80.9701C323.347 78.8974 322.184 76.736 319.429 75.1453C316.673 73.5546 312.93 72.883 309.34 73.1297C309.661 71.5593 310.892 70.0984 312.831 68.9817C317.6 66.2279 325.334 66.2286 330.103 68.9823Z" fill="#F79E1B"/>
</g>
<g filter="url(#filter5_d)">
<path fill-rule="evenodd" clip-rule="evenodd" d="M461 237.217C461 234.124 463.355 230.848 466.317 229.977C466.317 229.977 476.75 226 492.5 226C508.25 226 518.683 229.977 518.683 229.977C521.619 230.883 524 234.134 524 237.217V272.827C524 275.919 521.982 279.866 519.453 281.67L497.047 297.652C494.536 299.443 490.482 299.455 487.953 297.652L465.547 281.67C463.036 279.879 461 275.91 461 272.827V237.217Z" fill="white"/>
</g>
<path fill-rule="evenodd" clip-rule="evenodd" d="M473.7 246.761C473.7 244.897 475.098 242.922 476.857 242.397C476.857 242.397 483.05 240 492.4 240C501.75 240 507.944 242.397 507.944 242.397C509.687 242.943 511.1 244.903 511.1 246.761V268.224C511.1 270.088 509.902 272.467 508.401 273.554L495.099 283.188C493.609 284.267 491.202 284.275 489.701 283.188L476.399 273.554C474.909 272.475 473.7 270.083 473.7 268.224V246.761Z" fill="#426AE2"/>
<path d="M501.2 254.3L489.1 266.4L483.6 260.9" stroke="white" stroke-width="3" stroke-linecap="round" stroke-linejoin="round"/>
<g filter="url(#filter6_d)">
<path fill-rule="evenodd" clip-rule="evenodd" d="M44 41C44 37.9073 46.0376 34.8705 49 34C49 34 60.25 30 76 30C91.75 30 102 34 102 34C104.937 34.9056 107 37.9169 107 41V77C107 80.0927 104.528 84.1966 102 86L80 102C77.4889 103.791 73.5283 103.803 71 102L49 86C46.4889 84.2089 44 80.0831 44 77V41Z" fill="white"/>
</g>
<path fill-rule="evenodd" clip-rule="evenodd" d="M57 51C57 49.1359 58.2602 46.5247 60 46C60 46 66.75 44 76 44C85.25 44 91 46 91 46C92.7246 46.5459 94 49.1417 94 51V72C94 73.8641 92.4849 76.913 91 78L78 87C76.5252 88.0796 74.4849 88.087 73 87L60 78C58.5252 76.9204 57 73.8583 57 72V51Z" fill="#426AE2"/>
<rect x="67" y="61" width="17" height="12" rx="1.725" stroke="white" stroke-width="2.3" stroke-linecap="round" stroke-linejoin="round"/>
<path d="M70 61V56C70 52.6249 72.9618 50 76 50C77.6667 50 81 51.2 81 56V61" stroke="white" stroke-width="2.3" stroke-linecap="round" stroke-linejoin="round"/>
<g filter="url(#filter7_d)">
<path fill-rule="evenodd" clip-rule="evenodd" d="M125 472.348C125 475.44 122.962 478.477 120 479.348C120 479.348 108.75 483.348 93 483.348C77.25 483.348 67 479.348 67 479.348C64.0635 478.442 62 475.431 62 472.348L62 436.348C62 433.255 64.4717 429.151 67 427.348L89 411.348C91.5111 409.557 95.4717 409.544 98 411.348L120 427.348C122.511 429.139 125 433.265 125 436.348L125 472.348Z" fill="white"/>
</g>
<g filter="url(#filter8_dd)">
<circle cx="93.5005" cy="452.5" r="23.5" fill="#426AE2"/>
</g>
<rect x="85.0005" y="438" width="17" height="29" rx="2.1" stroke="#FEFEFE" stroke-width="2.3" stroke-linecap="round" stroke-linejoin="round"/>
<path d="M92.0005 441H95.0005" stroke="#FEFEFE" stroke-width="1.4" stroke-linecap="round" stroke-linejoin="round"/>
<path d="M92.0005 464H95.0005" stroke="#FEFEFE" stroke-width="1.4" stroke-linecap="round" stroke-linejoin="round"/>
<defs>
<filter id="filter0_f" x="85.7105" y="-35.6562" width="372.187" height="265.877" filterUnits="userSpaceOnUse" color-interpolation-filters="sRGB">
<feFlood flood-opacity="0" result="BackgroundImageFix"/>
<feBlend mode="normal" in="SourceGraphic" in2="BackgroundImageFix" result="shape"/>
<feGaussianBlur stdDeviation="43.8369" result="effect1_foregroundBlur"/>
</filter>
<filter id="filter1_f" x="138.731" y="-19.2812" width="428.298" height="292.345" filterUnits="userSpaceOnUse" color-interpolation-filters="sRGB">
<feFlood flood-opacity="0" result="BackgroundImageFix"/>
<feBlend mode="normal" in="SourceGraphic" in2="BackgroundImageFix" result="shape"/>
<feGaussianBlur stdDeviation="43.8369" result="effect1_foregroundBlur"/>
</filter>
<filter id="filter2_f" x="149.144" y="29.544" width="360.669" height="282.344" filterUnits="userSpaceOnUse" color-interpolation-filters="sRGB">
<feFlood flood-opacity="0" result="BackgroundImageFix"/>
<feBlend mode="normal" in="SourceGraphic" in2="BackgroundImageFix" result="shape"/>
<feGaussianBlur stdDeviation="43.8369" result="effect1_foregroundBlur"/>
</filter>
<filter id="filter3_f" x="48.6412" y="41.5655" width="429.039" height="315.161" filterUnits="userSpaceOnUse" color-interpolation-filters="sRGB">
<feFlood flood-opacity="0" result="BackgroundImageFix"/>
<feBlend mode="normal" in="SourceGraphic" in2="BackgroundImageFix" result="shape"/>
<feGaussianBlur stdDeviation="43.8369" result="effect1_foregroundBlur"/>
</filter>
<filter id="filter4_f" x="-30.2441" y="71.5127" width="423.328" height="318.519" filterUnits="userSpaceOnUse" color-interpolation-filters="sRGB">
<feFlood flood-opacity="0" result="BackgroundImageFix"/>
<feBlend mode="normal" in="SourceGraphic" in2="BackgroundImageFix" result="shape"/>
<feGaussianBlur stdDeviation="43.8369" result="effect1_foregroundBlur"/>
</filter>
<filter id="filter5_d" x="417" y="196" width="151" height="161" filterUnits="userSpaceOnUse" color-interpolation-filters="sRGB">
<feFlood flood-opacity="0" result="BackgroundImageFix"/>
<feColorMatrix in="SourceAlpha" type="matrix" values="0 0 0 0 0 0 0 0 0 0 0 0 0 0 0 0 0 0 127 0" result="hardAlpha"/>
<feMorphology radius="4" operator="erode" in="SourceAlpha" result="effect1_dropShadow"/>
<feOffset dy="14"/>
<feGaussianBlur stdDeviation="24"/>
<feColorMatrix type="matrix" values="0 0 0 0 0.118611 0 0 0 0 0.152353 0 0 0 0 0.233333 0 0 0 0.1 0"/>
<feBlend mode="normal" in2="BackgroundImageFix" result="effect1_dropShadow"/>
<feBlend mode="normal" in="SourceGraphic" in2="effect1_dropShadow" result="shape"/>
</filter>
<filter id="filter6_d" x="0" y="0" width="151" height="161.348" filterUnits="userSpaceOnUse" color-interpolation-filters="sRGB">
<feFlood flood-opacity="0" result="BackgroundImageFix"/>
<feColorMatrix in="SourceAlpha" type="matrix" values="0 0 0 0 0 0 0 0 0 0 0 0 0 0 0 0 0 0 127 0" result="hardAlpha"/>
<feMorphology radius="4" operator="erode" in="SourceAlpha" result="effect1_dropShadow"/>
<feOffset dy="14"/>
<feGaussianBlur stdDeviation="24"/>
<feColorMatrix type="matrix" values="0 0 0 0 0.118611 0 0 0 0 0.152353 0 0 0 0 0.233333 0 0 0 0.1 0"/>
<feBlend mode="normal" in2="BackgroundImageFix" result="effect1_dropShadow"/>
<feBlend mode="normal" in="SourceGraphic" in2="effect1_dropShadow" result="shape"/>
</filter>
<filter id="filter7_d" x="18" y="380" width="151" height="161.348" filterUnits="userSpaceOnUse" color-interpolation-filters="sRGB">
<feFlood flood-opacity="0" result="BackgroundImageFix"/>
<feColorMatrix in="SourceAlpha" type="matrix" values="0 0 0 0 0 0 0 0 0 0 0 0 0 0 0 0 0 0 127 0" result="hardAlpha"/>
<feMorphology radius="4" operator="erode" in="SourceAlpha" result="effect1_dropShadow"/>
<feOffset dy="14"/>
<feGaussianBlur stdDeviation="24"/>
<feColorMatrix type="matrix" values="0 0 0 0 0.118611 0 0 0 0 0.152353 0 0 0 0 0.233333 0 0 0 0.1 0"/>
<feBlend mode="normal" in2="BackgroundImageFix" result="effect1_dropShadow"/>
<feBlend mode="normal" in="SourceGraphic" in2="effect1_dropShadow" result="shape"/>
</filter>
<filter id="filter8_dd" x="42.0005" y="411" width="103" height="103" filterUnits="userSpaceOnUse" color-interpolation-filters="sRGB">
<feFlood flood-opacity="0" result="BackgroundImageFix"/>
<feColorMatrix in="SourceAlpha" type="matrix" values="0 0 0 0 0 0 0 0 0 0 0 0 0 0 0 0 0 0 127 0" result="hardAlpha"/>
<feMorphology radius="4" operator="erode" in="SourceAlpha" result="effect1_dropShadow"/>
<feOffset dy="10"/>
<feGaussianBlur stdDeviation="16"/>
<feColorMatrix type="matrix" values="0 0 0 0 0.143229 0 0 0 0 0.181985 0 0 0 0 0.275 0 0 0 0.1 0"/>
<feBlend mode="normal" in2="BackgroundImageFix" result="effect1_dropShadow"/>
<feColorMatrix in="SourceAlpha" type="matrix" values="0 0 0 0 0 0 0 0 0 0 0 0 0 0 0 0 0 0 127 0" result="hardAlpha"/>
<feMorphology radius="6" operator="erode" in="SourceAlpha" result="effect2_dropShadow"/>
<feOffset dy="6"/>
<feGaussianBlur stdDeviation="7"/>
<feColorMatrix type="matrix" values="0 0 0 0 0.142188 0 0 0 0 0.186152 0 0 0 0 0.291667 0 0 0 0.12 0"/>
<feBlend mode="normal" in2="effect1_dropShadow" result="effect2_dropShadow"/>
<feBlend mode="normal" in="SourceGraphic" in2="effect2_dropShadow" result="shape"/>
</filter>
<linearGradient id="paint0_linear" x1="249" y1="67" x2="249" y2="511" gradientUnits="userSpaceOnUse">
<stop stop-color="#F3F8FF"/>
<stop offset="1" stop-color="#F3F8FF" stop-opacity="0"/>
</linearGradient>
<clipPath id="clip0">
<rect width="306.858" height="175.348" rx="17.5348" transform="matrix(0.866025 0.5 -0.866025 0.5 203.855 223)" fill="white"/>
</clipPath>
<clipPath id="clip1">
<rect width="306.858" height="175.348" rx="17.5348" transform="matrix(0.866025 -0.5 0.866025 0.5 55 199.429)" fill="white"/>
</clipPath>
</defs>
</svg>
