<svg width="374" height="449" viewBox="0 0 374 449" fill="none" xmlns="http://www.w3.org/2000/svg">
<g clip-path="url(#clip0)">
<path d="M321.827 467.099C336.49 467.099 348.766 472.225 358.996 482.134C369.226 492.726 374 505.027 374 519.379C374 534.072 368.885 546.714 358.996 556.965C348.766 567.216 336.49 572 321.827 572H11.8554C9.80937 572 8.10435 571.658 6.39934 571.317C-2.46672 570.633 -10.3098 567.9 -17.1298 562.774C-29.0649 554.915 -36.567 543.981 -39.636 529.63C-42.705 515.278 -39.977 502.294 -31.7929 490.335L223.618 105.243H11.8554C-2.80772 105.243 -15.0838 100.117 -25.3139 90.2079C-35.544 79.6153 -41 67.3142 -41 52.963C-41 38.27 -35.885 25.969 -25.3139 15.7181C-15.0838 5.12547 -2.80772 0 11.8554 0H322.168C332.739 0.341697 342.287 3.41699 350.812 8.88413C362.747 16.7432 370.249 27.6774 372.636 42.0287C375.705 56.3799 373.318 69.7061 365.475 82.0072L109.382 467.099H321.827Z" fill="url(#paint0_linear)"/>
</g>
<defs>
<linearGradient id="paint0_linear" x1="180.723" y1="172.93" x2="180.723" y2="434.701" gradientUnits="userSpaceOnUse">
<stop stop-color="#4D76EE"/>
<stop offset="1" stop-color="#4D76EE" stop-opacity="0"/>
</linearGradient>
<clipPath id="clip0">
<rect width="415" height="449" fill="white" transform="translate(-41)"/>
</clipPath>
</defs>
</svg>
